<?xml version="1.0" encoding="UTF-8" standalone="no"?>
<!-- Generator: Adobe Illustrator 18.0.0, SVG Export Plug-In . SVG Version: 6.00 Build 0)  -->

<svg
   xmlns:dc="http://purl.org/dc/elements/1.1/"
   xmlns:cc="http://creativecommons.org/ns#"
   xmlns:rdf="http://www.w3.org/1999/02/22-rdf-syntax-ns#"
   xmlns:svg="http://www.w3.org/2000/svg"
   xmlns="http://www.w3.org/2000/svg"
   xmlns:sodipodi="http://sodipodi.sourceforge.net/DTD/sodipodi-0.dtd"
   xmlns:inkscape="http://www.inkscape.org/namespaces/inkscape"
   version="1.1"
   id="Capa_1"
   x="0px"
   y="0px"
   viewBox="0 0 362.715 362.715"
   style="enable-background:new 0 0 362.715 362.715;"
   xml:space="preserve"
   inkscape:version="0.91 r13725"
   sodipodi:docname="magnifyingglass.svg"
   inkscape:export-filename="K:\Oldmen\app\src\main\res\drawable-mdpi\search.png"
   inkscape:export-xdpi="11.910177"
   inkscape:export-ydpi="11.910177"><metadata
     id="metadata4173"><rdf:RDF><cc:Work
         rdf:about=""><dc:format>image/svg+xml</dc:format><dc:type
           rdf:resource="http://purl.org/dc/dcmitype/StillImage" /></cc:Work></rdf:RDF></metadata><defs
     id="defs4171" /><sodipodi:namedview
     pagecolor="#ffffff"
     bordercolor="#666666"
     borderopacity="1"
     objecttolerance="10"
     gridtolerance="10"
     guidetolerance="10"
     inkscape:pageopacity="0"
     inkscape:pageshadow="2"
     inkscape:window-width="1680"
     inkscape:window-height="988"
     id="namedview4169"
     showgrid="false"
     inkscape:zoom="2.1807756"
     inkscape:cx="181.3575"
     inkscape:cy="181.3575"
     inkscape:window-x="-8"
     inkscape:window-y="-8"
     inkscape:window-maximized="1"
     inkscape:current-layer="Capa_1" /><path
     d="M352.464,302.966l-90.374-90.373c-6.689-6.69-15.414-10.097-24.182-10.238c33.904-50.513,28.561-119.733-16.045-164.339  c-50.688-50.687-133.161-50.687-183.848,0c-50.688,50.687-50.688,133.161,0,183.848c44.606,44.606,113.826,49.95,164.339,16.045  c0.142,8.767,3.548,17.492,10.238,24.182l90.373,90.374c13.669,13.668,35.829,13.668,49.498,0  C366.132,338.795,366.132,316.634,352.464,302.966z M193.579,193.579c-35.091,35.091-92.188,35.091-127.279,0  c-35.091-35.091-35.091-92.188,0-127.279c35.091-35.091,92.188-35.091,127.279,0C228.67,101.39,228.67,158.488,193.579,193.579z"
     id="path4137"
     style="fill:#ffffff;fill-opacity:1"
     inkscape:export-filename="K:\Oldmen\app\src\main\res\drawable-mdpi\search.png"
     inkscape:export-xdpi="5.96"
     inkscape:export-ydpi="5.96" /><g
     id="g4139" /><g
     id="g4141" /><g
     id="g4143" /><g
     id="g4145" /><g
     id="g4147" /><g
     id="g4149" /><g
     id="g4151" /><g
     id="g4153" /><g
     id="g4155" /><g
     id="g4157" /><g
     id="g4159" /><g
     id="g4161" /><g
     id="g4163" /><g
     id="g4165" /><g
     id="g4167" /></svg>