<?xml version="1.0" encoding="UTF-8" standalone="no"?>
<svg
   xmlns:dc="http://purl.org/dc/elements/1.1/"
   xmlns:cc="http://creativecommons.org/ns#"
   xmlns:rdf="http://www.w3.org/1999/02/22-rdf-syntax-ns#"
   xmlns:svg="http://www.w3.org/2000/svg"
   xmlns="http://www.w3.org/2000/svg"
   xmlns:sodipodi="http://sodipodi.sourceforge.net/DTD/sodipodi-0.dtd"
   xmlns:inkscape="http://www.inkscape.org/namespaces/inkscape"
   height="100"
   viewBox="0 0 100 100"
   width="100"
   id="svg4150"
   version="1.1"
   inkscape:version="0.91 r13725"
   sodipodi:docname="ic_message_black_24px.svg"
   style="fill:#000000"
   inkscape:export-filename="K:\Oldmen\app\src\main\res\drawable-xxxhdpi\ic_message.png"
   inkscape:export-xdpi="216"
   inkscape:export-ydpi="216">
  <metadata
     id="metadata4160">
    <rdf:RDF>
      <cc:Work
         rdf:about="">
        <dc:format>image/svg+xml</dc:format>
        <dc:type
           rdf:resource="http://purl.org/dc/dcmitype/StillImage" />
        <dc:title></dc:title>
      </cc:Work>
    </rdf:RDF>
  </metadata>
  <defs
     id="defs4158" />
  <sodipodi:namedview
     pagecolor="#ffffff"
     bordercolor="#666666"
     borderopacity="1"
     objecttolerance="10"
     gridtolerance="10"
     guidetolerance="10"
     inkscape:pageopacity="0"
     inkscape:pageshadow="2"
     inkscape:window-width="1680"
     inkscape:window-height="988"
     id="namedview4156"
     showgrid="false"
     inkscape:zoom="4.9166667"
     inkscape:cx="17.341036"
     inkscape:cy="31.327295"
     inkscape:window-x="-8"
     inkscape:window-y="-8"
     inkscape:window-maximized="1"
     inkscape:current-layer="svg4150" />
  <rect
     style="opacity:0.98999999;fill:#e2e454;fill-opacity:1;stroke:none;stroke-width:3.44273901;stroke-linecap:round;stroke-linejoin:miter;stroke-miterlimit:4;stroke-dasharray:none;stroke-dashoffset:28.46294785;stroke-opacity:1"
     id="rect4148"
     width="100"
     height="100"
     x="0"
     y="0"
     ry="15" />
  <path
     d="m 74.482408,19.397 -48.964799,0 c -3.366331,0 -6.089999,2.754269 -6.089999,6.1206 L 19.397,80.603 31.638199,68.361801 l 42.844201,0 c 3.366331,0 6.1206,-2.754271 6.1206,-6.120601 l 0,-36.7236 c 0,-3.366331 -2.754269,-6.1206 -6.1206,-6.1206 z m -6.120599,36.723601 -36.723602,0 0,-6.120601 36.723602,0 0,6.120601 z m 0,-9.180901 -36.723602,0 0,-6.1206 36.723602,0 0,6.1206 z m 0,-9.1809 -36.723602,0 0,-6.120601 36.723602,0 0,6.120601 z"
     id="path4152"
     inkscape:connector-curvature="0"
     style="fill:#ffffff;fill-opacity:1" />
  <path
     d="m 0,76 24,0 0,24 -24,0 z"
     id="path4154"
     inkscape:connector-curvature="0"
     style="fill:none" />
</svg>
