<?xml version="1.0" encoding="UTF-8" standalone="no"?>
<svg
   xmlns:dc="http://purl.org/dc/elements/1.1/"
   xmlns:cc="http://creativecommons.org/ns#"
   xmlns:rdf="http://www.w3.org/1999/02/22-rdf-syntax-ns#"
   xmlns:svg="http://www.w3.org/2000/svg"
   xmlns="http://www.w3.org/2000/svg"
   xmlns:sodipodi="http://sodipodi.sourceforge.net/DTD/sodipodi-0.dtd"
   xmlns:inkscape="http://www.inkscape.org/namespaces/inkscape"
   height="100"
   viewBox="0 0 100 100"
   width="100"
   id="svg4136"
   version="1.1"
   inkscape:version="0.91 r13725"
   sodipodi:docname="ic_phone_black_24px.svg"
   inkscape:export-filename="K:\Oldmen\app\src\main\res\drawable-xxxhdpi\ic_phone.png"
   inkscape:export-xdpi="216"
   inkscape:export-ydpi="216"
   style="fill:#000000">
  <metadata
     id="metadata4146">
    <rdf:RDF>
      <cc:Work
         rdf:about="">
        <dc:format>image/svg+xml</dc:format>
        <dc:type
           rdf:resource="http://purl.org/dc/dcmitype/StillImage" />
        <dc:title></dc:title>
      </cc:Work>
    </rdf:RDF>
  </metadata>
  <defs
     id="defs4144" />
  <sodipodi:namedview
     pagecolor="#ffffff"
     bordercolor="#666666"
     borderopacity="1"
     objecttolerance="10"
     gridtolerance="10"
     guidetolerance="10"
     inkscape:pageopacity="0"
     inkscape:pageshadow="2"
     inkscape:window-width="1680"
     inkscape:window-height="988"
     id="namedview4142"
     showgrid="false"
     inkscape:zoom="4.1197917"
     inkscape:cx="14.11903"
     inkscape:cy="35.969601"
     inkscape:window-x="-8"
     inkscape:window-y="-8"
     inkscape:window-maximized="1"
     inkscape:current-layer="svg4136" />
  <rect
     style="opacity:0.98999999;fill:#96e376;fill-opacity:1;stroke:none;stroke-width:3.44273901;stroke-linecap:round;stroke-linejoin:miter;stroke-miterlimit:4;stroke-dasharray:none;stroke-dashoffset:28.46294785;stroke-opacity:1"
     id="rect4148"
     width="100"
     height="100"
     x="0"
     y="0"
     ry="15" />
  <path
     d="m 1.1049305,1.1049305 97.7901395,0 0,97.7901395 -97.7901395,0 z"
     id="path4138"
     inkscape:connector-curvature="0"
     style="fill:none" />
  <path
     d="m 31.706186,45.885592 c 4.896485,9.622955 12.785267,17.477734 22.408222,22.408222 l 7.480742,-7.480741 c 0.918091,-0.918091 2.278226,-1.224123 3.468344,-0.816082 3.808376,1.258125 7.922785,1.938192 12.139203,1.938192 1.870185,0 3.400337,1.530151 3.400337,3.400337 l 0,11.867177 c 0,1.870185 -1.530152,3.400337 -3.400337,3.400337 -31.929166,0 -57.805731,-25.876566 -57.805731,-57.805731 0,-1.870186 1.530151,-3.400337 3.400337,-3.400337 l 11.90118,0 c 1.870185,0 3.400337,1.530151 3.400337,3.400337 0,4.250421 0.680068,8.330827 1.938192,12.139203 0.374038,1.190118 0.10201,2.51625 -0.850085,3.468344 l -7.480741,7.480742 z"
     id="path4140"
     style="fill:#ffffff;fill-opacity:1"
     inkscape:connector-curvature="0" />
</svg>
